STARTFONT 2.1
FONT nl12
SIZE 12 75 75
FONTBOUNDINGBOX 8 12 0 -2
STARTPROPERTIES 10
COPYRIGHT "Public domain font.  Share and enjoy."
FAMILY_NAME "nl12.bdf"
POINT_SIZE 120
WEIGHT 166
RESOLUTION 103
X_HEIGHT 12
QUAD_WIDTH 8
DEFAULT_CHAR 32
FONT_ASCENT 10
FONT_DESCENT 2
ENDPROPERTIES
CHARS 256
STARTCHAR CHAR0
ENCODING 1
SWIDTH 722 0
DWIDTH 8 0
BBX 8 12 0 -2
BITMAP
00
00
00
00
00
00
00
00
00
00
00
00
ENDCHAR
STARTCHAR CHAR1
ENCODING 2
SWIDTH 722 0
DWIDTH 8 0
BBX 8 12 0 -2
BITMAP
00
00
00
00
00
00
00
00
00
00
00
00
ENDCHAR
STARTCHAR CHAR2
ENCODING 3
SWIDTH 722 0
DWIDTH 8 0
BBX 8 12 0 -2
BITMAP
00
00
00
00
00
00
00
00
00
00
00
00
ENDCHAR
STARTCHAR CHAR3
ENCODING 4
SWIDTH 722 0
DWIDTH 8 0
BBX 8 12 0 -2
BITMAP
00
00
00
00
00
00
00
00
00
00
00
00
ENDCHAR
STARTCHAR CHAR4
ENCODING 5
SWIDTH 722 0
DWIDTH 8 0
BBX 8 12 0 -2
BITMAP
00
00
00
00
00
00
00
00
00
00
00
00
ENDCHAR
STARTCHAR CHAR5
ENCODING 6
SWIDTH 722 0
DWIDTH 8 0
BBX 8 12 0 -2
BITMAP
00
00
00
00
00
00
00
00
00
00
00
00
ENDCHAR
STARTCHAR CHAR6
ENCODING 7
SWIDTH 722 0
DWIDTH 8 0
BBX 8 12 0 -2
BITMAP
00
00
00
00
00
00
00
00
00
00
00
00
ENDCHAR
STARTCHAR CHAR7
ENCODING 8
SWIDTH 722 0
DWIDTH 8 0
BBX 8 12 0 -2
BITMAP
00
00
00
00
00
00
00
00
00
00
00
00
ENDCHAR
STARTCHAR CHAR8
ENCODING 9
SWIDTH 722 0
DWIDTH 8 0
BBX 8 12 0 -2
BITMAP
00
00
00
00
00
00
00
00
00
00
00
00
ENDCHAR
STARTCHAR CHAR9
ENCODING 10
SWIDTH 722 0
DWIDTH 8 0
BBX 8 12 0 -2
BITMAP
00
00
00
00
00
00
00
00
00
00
00
00
ENDCHAR
STARTCHAR CHAR10
ENCODING 11
SWIDTH 722 0
DWIDTH 8 0
BBX 8 12 0 -2
BITMAP
00
00
00
00
00
00
00
00
00
00
00
00
ENDCHAR
STARTCHAR CHAR11
ENCODING 12
SWIDTH 722 0
DWIDTH 8 0
BBX 8 12 0 -2
BITMAP
00
00
00
00
00
00
00
e0
20
20
20
20
ENDCHAR
STARTCHAR CHAR12
ENCODING 13
SWIDTH 722 0
DWIDTH 8 0
BBX 8 12 0 -2
BITMAP
00
00
00
00
00
00
00
00
00
00
00
00
ENDCHAR
STARTCHAR CHAR13
ENCODING 14
SWIDTH 722 0
DWIDTH 8 0
BBX 8 12 0 -2
BITMAP
00
00
00
00
00
00
00
00
00
00
00
00
ENDCHAR
STARTCHAR CHAR14
ENCODING 15
SWIDTH 722 0
DWIDTH 8 0
BBX 8 12 0 -2
BITMAP
00
00
00
00
00
00
00
00
00
00
00
00
ENDCHAR
STARTCHAR CHAR15
ENCODING 16
SWIDTH 722 0
DWIDTH 8 0
BBX 8 12 0 -2
BITMAP
00
00
00
00
00
00
00
00
00
00
00
00
ENDCHAR
STARTCHAR CHAR16
ENCODING 17
SWIDTH 722 0
DWIDTH 8 0
BBX 8 12 0 -2
BITMAP
00
00
00
00
00
00
00
00
00
00
00
00
ENDCHAR
STARTCHAR CHAR17
ENCODING 18
SWIDTH 722 0
DWIDTH 8 0
BBX 8 12 0 -2
BITMAP
00
00
00
00
00
00
00
00
00
00
00
00
ENDCHAR
STARTCHAR CHAR18
ENCODING 19
SWIDTH 722 0
DWIDTH 8 0
BBX 8 12 0 -2
BITMAP
00
00
00
00
00
00
00
00
00
00
00
00
ENDCHAR
STARTCHAR CHAR19
ENCODING 20
SWIDTH 722 0
DWIDTH 8 0
BBX 8 12 0 -2
BITMAP
00
00
00
00
00
00
00
00
00
00
00
00
ENDCHAR
STARTCHAR CHAR20
ENCODING 21
SWIDTH 722 0
DWIDTH 8 0
BBX 8 12 0 -2
BITMAP
00
00
00
00
00
00
00
00
00
00
00
00
ENDCHAR
STARTCHAR CHAR21
ENCODING 22
SWIDTH 722 0
DWIDTH 8 0
BBX 8 12 0 -2
BITMAP
00
00
00
00
00
00
00
00
00
00
00
00
ENDCHAR
STARTCHAR CHAR22
ENCODING 23
SWIDTH 722 0
DWIDTH 8 0
BBX 8 12 0 -2
BITMAP
00
00
00
00
00
00
00
00
00
00
00
00
ENDCHAR
STARTCHAR CHAR23
ENCODING 24
SWIDTH 722 0
DWIDTH 8 0
BBX 8 12 0 -2
BITMAP
00
00
00
00
00
00
00
00
00
00
00
00
ENDCHAR
STARTCHAR CHAR24
ENCODING 25
SWIDTH 722 0
DWIDTH 8 0
BBX 8 12 0 -2
BITMAP
00
00
00
00
00
00
00
00
00
00
00
00
ENDCHAR
STARTCHAR CHAR25
ENCODING 26
SWIDTH 722 0
DWIDTH 8 0
BBX 8 12 0 -2
BITMAP
00
00
00
00
00
00
00
00
00
00
00
00
ENDCHAR
STARTCHAR CHAR26
ENCODING 27
SWIDTH 722 0
DWIDTH 8 0
BBX 8 12 0 -2
BITMAP
00
00
00
00
00
00
00
00
00
00
00
00
ENDCHAR
STARTCHAR CHAR27
ENCODING 28
SWIDTH 722 0
DWIDTH 8 0
BBX 8 12 0 -2
BITMAP
00
00
00
00
00
00
00
00
00
00
00
00
ENDCHAR
STARTCHAR CHAR28
ENCODING 29
SWIDTH 722 0
DWIDTH 8 0
BBX 8 12 0 -2
BITMAP
00
00
00
00
00
00
00
00
00
00
00
00
ENDCHAR
STARTCHAR CHAR29
ENCODING 30
SWIDTH 722 0
DWIDTH 8 0
BBX 8 12 0 -2
BITMAP
00
00
00
00
00
00
00
00
00
00
00
00
ENDCHAR
STARTCHAR CHAR30
ENCODING 31
SWIDTH 722 0
DWIDTH 8 0
BBX 8 12 0 -2
BITMAP
00
00
00
00
00
00
00
00
00
00
00
00
ENDCHAR
STARTCHAR CHAR31
ENCODING 32
SWIDTH 722 0
DWIDTH 8 0
BBX 8 12 0 -2
BITMAP
00
00
00
00
00
00
00
00
00
00
00
00
ENDCHAR
STARTCHAR CHAR32
ENCODING 33
SWIDTH 722 0
DWIDTH 8 0
BBX 8 12 0 -2
BITMAP
00
18
18
18
18
18
10
00
18
18
00
00
ENDCHAR
STARTCHAR CHAR33
ENCODING 34
SWIDTH 722 0
DWIDTH 8 0
BBX 8 12 0 -2
BITMAP
28
28
28
00
00
00
00
00
00
00
00
00
ENDCHAR
STARTCHAR CHAR34
ENCODING 35
SWIDTH 722 0
DWIDTH 8 0
BBX 8 12 0 -2
BITMAP
00
24
24
7e
24
24
7e
24
24
24
00
00
ENDCHAR
STARTCHAR CHAR35
ENCODING 36
SWIDTH 722 0
DWIDTH 8 0
BBX 8 12 0 -2
BITMAP
10
38
54
50
30
18
14
14
54
38
10
00
ENDCHAR
STARTCHAR CHAR36
ENCODING 37
SWIDTH 722 0
DWIDTH 8 0
BBX 8 12 0 -2
BITMAP
00
60
92
94
68
10
2c
52
92
0c
00
00
ENDCHAR
STARTCHAR CHAR37
ENCODING 38
SWIDTH 722 0
DWIDTH 8 0
BBX 8 12 0 -2
BITMAP
00
18
24
24
18
32
4a
44
44
3a
00
00
ENDCHAR
STARTCHAR CHAR38
ENCODING 39
SWIDTH 722 0
DWIDTH 8 0
BBX 8 12 0 -2
BITMAP
18
18
30
00
00
00
00
00
00
00
00
00
ENDCHAR
STARTCHAR CHAR39
ENCODING 40
SWIDTH 722 0
DWIDTH 8 0
BBX 8 12 0 -2
BITMAP
0c
10
10
20
20
20
20
20
10
10
0c
00
ENDCHAR
STARTCHAR CHAR40
ENCODING 41
SWIDTH 722 0
DWIDTH 8 0
BBX 8 12 0 -2
BITMAP
60
10
10
08
08
08
08
08
10
10
60
00
ENDCHAR
STARTCHAR CHAR41
ENCODING 42
SWIDTH 722 0
DWIDTH 8 0
BBX 8 12 0 -2
BITMAP
00
10
54
28
54
10
00
00
00
00
00
00
ENDCHAR
STARTCHAR CHAR42
ENCODING 43
SWIDTH 722 0
DWIDTH 8 0
BBX 8 12 0 -2
BITMAP
00
00
10
10
10
fe
10
10
10
00
00
00
ENDCHAR
STARTCHAR CHAR43
ENCODING 44
SWIDTH 722 0
DWIDTH 8 0
BBX 8 12 0 -2
BITMAP
00
00
00
00
00
00
00
00
18
18
30
00
ENDCHAR
STARTCHAR CHAR44
ENCODING 45
SWIDTH 722 0
DWIDTH 8 0
BBX 8 12 0 -2
BITMAP
00
00
00
00
00
fe
00
00
00
00
00
00
ENDCHAR
STARTCHAR CHAR45
ENCODING 46
SWIDTH 722 0
DWIDTH 8 0
BBX 8 12 0 -2
BITMAP
00
00
00
00
00
00
00
00
30
30
00
00
ENDCHAR
STARTCHAR CHAR46
ENCODING 47
SWIDTH 722 0
DWIDTH 8 0
BBX 8 12 0 -2
BITMAP
04
04
08
08
10
10
10
20
20
40
40
00
ENDCHAR
STARTCHAR CHAR47
ENCODING 48
SWIDTH 722 0
DWIDTH 8 0
BBX 8 12 0 -2
BITMAP
00
38
44
44
44
44
44
44
44
38
00
00
ENDCHAR
STARTCHAR CHAR48
ENCODING 49
SWIDTH 722 0
DWIDTH 8 0
BBX 8 12 0 -2
BITMAP
00
10
30
50
10
10
10
10
10
10
00
00
ENDCHAR
STARTCHAR CHAR49
ENCODING 50
SWIDTH 722 0
DWIDTH 8 0
BBX 8 12 0 -2
BITMAP
00
38
44
04
04
08
10
20
40
7c
00
00
ENDCHAR
STARTCHAR CHAR50
ENCODING 51
SWIDTH 722 0
DWIDTH 8 0
BBX 8 12 0 -2
BITMAP
00
38
44
04
04
18
04
04
44
38
00
00
ENDCHAR
STARTCHAR CHAR51
ENCODING 52
SWIDTH 722 0
DWIDTH 8 0
BBX 8 12 0 -2
BITMAP
00
08
18
28
48
88
fc
08
08
08
00
00
ENDCHAR
STARTCHAR CHAR52
ENCODING 53
SWIDTH 722 0
DWIDTH 8 0
BBX 8 12 0 -2
BITMAP
00
7c
40
40
78
04
04
04
44
38
00
00
ENDCHAR
STARTCHAR CHAR53
ENCODING 54
SWIDTH 722 0
DWIDTH 8 0
BBX 8 12 0 -2
BITMAP
00
38
44
40
40
78
44
44
44
38
00
00
ENDCHAR
STARTCHAR CHAR54
ENCODING 55
SWIDTH 722 0
DWIDTH 8 0
BBX 8 12 0 -2
BITMAP
00
7c
04
04
08
10
10
20
20
20
00
00
ENDCHAR
STARTCHAR CHAR55
ENCODING 56
SWIDTH 722 0
DWIDTH 8 0
BBX 8 12 0 -2
BITMAP
00
38
44
44
44
38
44
44
44
38
00
00
ENDCHAR
STARTCHAR CHAR56
ENCODING 57
SWIDTH 722 0
DWIDTH 8 0
BBX 8 12 0 -2
BITMAP
00
38
44
44
44
3c
04
04
44
38
00
00
ENDCHAR
STARTCHAR CHAR57
ENCODING 58
SWIDTH 722 0
DWIDTH 8 0
BBX 8 12 0 -2
BITMAP
00
00
00
30
30
00
00
00
30
30
00
00
ENDCHAR
STARTCHAR CHAR58
ENCODING 59
SWIDTH 722 0
DWIDTH 8 0
BBX 8 12 0 -2
BITMAP
00
00
00
30
30
00
00
00
30
30
60
00
ENDCHAR
STARTCHAR CHAR59
ENCODING 60
SWIDTH 722 0
DWIDTH 8 0
BBX 8 12 0 -2
BITMAP
00
00
04
08
10
20
10
08
04
00
00
00
ENDCHAR
STARTCHAR CHAR60
ENCODING 61
SWIDTH 722 0
DWIDTH 8 0
BBX 8 12 0 -2
BITMAP
00
00
00
00
fe
00
fe
00
00
00
00
00
ENDCHAR
STARTCHAR CHAR61
ENCODING 62
SWIDTH 722 0
DWIDTH 8 0
BBX 8 12 0 -2
BITMAP
00
00
20
10
08
04
08
10
20
00
00
00
ENDCHAR
STARTCHAR CHAR62
ENCODING 63
SWIDTH 722 0
DWIDTH 8 0
BBX 8 12 0 -2
BITMAP
00
78
04
04
04
38
20
00
20
20
00
00
ENDCHAR
STARTCHAR CHAR63
ENCODING 64
SWIDTH 722 0
DWIDTH 8 0
BBX 8 12 0 -2
BITMAP
00
38
44
9c
a4
a4
ac
92
40
38
00
00
ENDCHAR
STARTCHAR CHAR64
ENCODING 65
SWIDTH 722 0
DWIDTH 8 0
BBX 8 12 0 -2
BITMAP
00
18
18
24
24
24
7e
42
42
42
00
00
ENDCHAR
STARTCHAR CHAR65
ENCODING 66
SWIDTH 722 0
DWIDTH 8 0
BBX 8 12 0 -2
BITMAP
00
78
44
44
44
78
44
44
44
78
00
00
ENDCHAR
STARTCHAR CHAR66
ENCODING 67
SWIDTH 722 0
DWIDTH 8 0
BBX 8 12 0 -2
BITMAP
00
1c
24
40
40
40
40
40
20
1c
00
00
ENDCHAR
STARTCHAR CHAR67
ENCODING 68
SWIDTH 722 0
DWIDTH 8 0
BBX 8 12 0 -2
BITMAP
00
70
48
44
44
44
44
44
48
70
00
00
ENDCHAR
STARTCHAR CHAR68
ENCODING 69
SWIDTH 722 0
DWIDTH 8 0
BBX 8 12 0 -2
BITMAP
00
7c
40
40
40
78
40
40
40
7c
00
00
ENDCHAR
STARTCHAR CHAR69
ENCODING 70
SWIDTH 722 0
DWIDTH 8 0
BBX 8 12 0 -2
BITMAP
00
3c
20
20
20
3c
20
20
20
20
00
00
ENDCHAR
STARTCHAR CHAR70
ENCODING 71
SWIDTH 722 0
DWIDTH 8 0
BBX 8 12 0 -2
BITMAP
00
1c
24
40
40
40
44
44
24
1c
00
00
ENDCHAR
STARTCHAR CHAR71
ENCODING 72
SWIDTH 722 0
DWIDTH 8 0
BBX 8 12 0 -2
BITMAP
00
44
44
44
44
7c
44
44
44
44
00
00
ENDCHAR
STARTCHAR CHAR72
ENCODING 73
SWIDTH 722 0
DWIDTH 8 0
BBX 8 12 0 -2
BITMAP
00
7c
10
10
10
10
10
10
10
7c
00
00
ENDCHAR
STARTCHAR CHAR73
ENCODING 74
SWIDTH 722 0
DWIDTH 8 0
BBX 8 12 0 -2
BITMAP
00
7c
10
10
10
10
10
10
10
e0
00
00
ENDCHAR
STARTCHAR CHAR74
ENCODING 75
SWIDTH 722 0
DWIDTH 8 0
BBX 8 12 0 -2
BITMAP
00
42
44
48
50
70
48
44
42
42
00
00
ENDCHAR
STARTCHAR CHAR75
ENCODING 76
SWIDTH 722 0
DWIDTH 8 0
BBX 8 12 0 -2
BITMAP
00
20
20
20
20
20
20
20
20
3c
00
00
ENDCHAR
STARTCHAR CHAR76
ENCODING 77
SWIDTH 722 0
DWIDTH 8 0
BBX 8 12 0 -2
BITMAP
00
42
66
66
5a
5a
5a
42
42
42
00
00
ENDCHAR
STARTCHAR CHAR77
ENCODING 78
SWIDTH 722 0
DWIDTH 8 0
BBX 8 12 0 -2
BITMAP
00
44
64
64
54
54
4c
4c
44
44
00
00
ENDCHAR
STARTCHAR CHAR78
ENCODING 79
SWIDTH 722 0
DWIDTH 8 0
BBX 8 12 0 -2
BITMAP
00
18
24
42
42
42
42
42
24
18
00
00
ENDCHAR
STARTCHAR CHAR79
ENCODING 80
SWIDTH 722 0
DWIDTH 8 0
BBX 8 12 0 -2
BITMAP
00
78
44
44
44
44
78
40
40
40
00
00
ENDCHAR
STARTCHAR CHAR80
ENCODING 81
SWIDTH 722 0
DWIDTH 8 0
BBX 8 12 0 -2
BITMAP
00
18
24
42
42
42
42
42
24
18
0c
06
ENDCHAR
STARTCHAR CHAR81
ENCODING 82
SWIDTH 722 0
DWIDTH 8 0
BBX 8 12 0 -2
BITMAP
00
78
44
44
44
78
48
44
44
44
00
00
ENDCHAR
STARTCHAR CHAR82
ENCODING 83
SWIDTH 722 0
DWIDTH 8 0
BBX 8 12 0 -2
BITMAP
00
3c
40
40
60
38
0c
04
04
78
00
00
ENDCHAR
STARTCHAR CHAR83
ENCODING 84
SWIDTH 722 0
DWIDTH 8 0
BBX 8 12 0 -2
BITMAP
00
fe
10
10
10
10
10
10
10
10
00
00
ENDCHAR
STARTCHAR CHAR84
ENCODING 85
SWIDTH 722 0
DWIDTH 8 0
BBX 8 12 0 -2
BITMAP
00
44
44
44
44
44
44
44
44
38
00
00
ENDCHAR
STARTCHAR CHAR85
ENCODING 86
SWIDTH 722 0
DWIDTH 8 0
BBX 8 12 0 -2
BITMAP
00
42
42
42
42
24
24
24
18
18
00
00
ENDCHAR
STARTCHAR CHAR86
ENCODING 87
SWIDTH 722 0
DWIDTH 8 0
BBX 8 12 0 -2
BITMAP
00
82
92
92
92
aa
6c
44
44
44
00
00
ENDCHAR
STARTCHAR CHAR87
ENCODING 88
SWIDTH 722 0
DWIDTH 8 0
BBX 8 12 0 -2
BITMAP
00
44
44
28
28
10
28
28
44
44
00
00
ENDCHAR
STARTCHAR CHAR88
ENCODING 89
SWIDTH 722 0
DWIDTH 8 0
BBX 8 12 0 -2
BITMAP
00
44
44
44
28
28
10
10
10
10
00
00
ENDCHAR
STARTCHAR CHAR89
ENCODING 90
SWIDTH 722 0
DWIDTH 8 0
BBX 8 12 0 -2
BITMAP
00
7c
04
08
08
10
20
20
40
7c
00
00
ENDCHAR
STARTCHAR CHAR90
ENCODING 91
SWIDTH 722 0
DWIDTH 8 0
BBX 8 12 0 -2
BITMAP
1c
10
10
10
10
10
10
10
10
10
1c
00
ENDCHAR
STARTCHAR CHAR91
ENCODING 92
SWIDTH 722 0
DWIDTH 8 0
BBX 8 12 0 -2
BITMAP
40
40
20
20
10
10
10
08
08
04
04
00
ENDCHAR
STARTCHAR CHAR92
ENCODING 93
SWIDTH 722 0
DWIDTH 8 0
BBX 8 12 0 -2
BITMAP
70
10
10
10
10
10
10
10
10
10
70
00
ENDCHAR
STARTCHAR CHAR93
ENCODING 94
SWIDTH 722 0
DWIDTH 8 0
BBX 8 12 0 -2
BITMAP
00
10
10
28
28
44
44
00
00
00
00
00
ENDCHAR
STARTCHAR CHAR94
ENCODING 95
SWIDTH 722 0
DWIDTH 8 0
BBX 8 12 0 -2
BITMAP
00
00
00
00
00
00
00
00
00
00
fe
00
ENDCHAR
STARTCHAR CHAR95
ENCODING 96
SWIDTH 722 0
DWIDTH 8 0
BBX 8 12 0 -2
BITMAP
18
30
30
00
00
00
00
00
00
00
00
00
ENDCHAR
STARTCHAR CHAR96
ENCODING 97
SWIDTH 722 0
DWIDTH 8 0
BBX 8 12 0 -2
BITMAP
00
00
00
38
44
04
3c
44
44
3a
00
00
ENDCHAR
STARTCHAR CHAR97
ENCODING 98
SWIDTH 722 0
DWIDTH 8 0
BBX 8 12 0 -2
BITMAP
40
40
40
58
64
44
44
44
44
78
00
00
ENDCHAR
STARTCHAR CHAR98
ENCODING 99
SWIDTH 722 0
DWIDTH 8 0
BBX 8 12 0 -2
BITMAP
00
00
00
1c
20
40
40
40
20
1c
00
00
ENDCHAR
STARTCHAR CHAR99
ENCODING 100
SWIDTH 722 0
DWIDTH 8 0
BBX 8 12 0 -2
BITMAP
04
04
04
3c
44
44
44
44
4c
34
00
00
ENDCHAR
STARTCHAR CHAR100
ENCODING 101
SWIDTH 722 0
DWIDTH 8 0
BBX 8 12 0 -2
BITMAP
00
00
00
38
44
44
7c
40
44
38
00
00
ENDCHAR
STARTCHAR CHAR101
ENCODING 102
SWIDTH 722 0
DWIDTH 8 0
BBX 8 12 0 -2
BITMAP
1c
20
20
7c
20
20
20
20
20
20
00
00
ENDCHAR
STARTCHAR CHAR102
ENCODING 103
SWIDTH 722 0
DWIDTH 8 0
BBX 8 12 0 -2
BITMAP
00
00
00
3c
44
44
44
4c
34
04
04
38
ENDCHAR
STARTCHAR CHAR103
ENCODING 104
SWIDTH 722 0
DWIDTH 8 0
BBX 8 12 0 -2
BITMAP
40
40
40
58
64
44
44
44
44
44
00
00
ENDCHAR
STARTCHAR CHAR104
ENCODING 105
SWIDTH 722 0
DWIDTH 8 0
BBX 8 12 0 -2
BITMAP
10
10
00
70
10
10
10
10
10
10
00
00
ENDCHAR
STARTCHAR CHAR105
ENCODING 106
SWIDTH 722 0
DWIDTH 8 0
BBX 8 12 0 -2
BITMAP
08
08
00
78
08
08
08
08
08
08
08
70
ENDCHAR
STARTCHAR CHAR106
ENCODING 107
SWIDTH 722 0
DWIDTH 8 0
BBX 8 12 0 -2
BITMAP
40
40
40
44
48
50
70
48
44
42
00
00
ENDCHAR
STARTCHAR CHAR107
ENCODING 108
SWIDTH 722 0
DWIDTH 8 0
BBX 8 12 0 -2
BITMAP
70
10
10
10
10
10
10
10
10
10
00
00
ENDCHAR
STARTCHAR CHAR108
ENCODING 109
SWIDTH 722 0
DWIDTH 8 0
BBX 8 12 0 -2
BITMAP
00
00
00
a4
da
92
92
92
92
92
00
00
ENDCHAR
STARTCHAR CHAR109
ENCODING 110
SWIDTH 722 0
DWIDTH 8 0
BBX 8 12 0 -2
BITMAP
00
00
00
58
64
44
44
44
44
44
00
00
ENDCHAR
STARTCHAR CHAR110
ENCODING 111
SWIDTH 722 0
DWIDTH 8 0
BBX 8 12 0 -2
BITMAP
00
00
00
38
44
44
44
44
44
38
00
00
ENDCHAR
STARTCHAR CHAR111
ENCODING 112
SWIDTH 722 0
DWIDTH 8 0
BBX 8 12 0 -2
BITMAP
00
00
00
58
64
44
44
44
44
78
40
40
ENDCHAR
STARTCHAR CHAR112
ENCODING 113
SWIDTH 722 0
DWIDTH 8 0
BBX 8 12 0 -2
BITMAP
00
00
00
3c
44
44
44
44
4c
34
04
04
ENDCHAR
STARTCHAR CHAR113
ENCODING 114
SWIDTH 722 0
DWIDTH 8 0
BBX 8 12 0 -2
BITMAP
00
00
00
2c
30
20
20
20
20
20
00
00
ENDCHAR
STARTCHAR CHAR114
ENCODING 115
SWIDTH 722 0
DWIDTH 8 0
BBX 8 12 0 -2
BITMAP
00
00
00
3c
40
40
38
04
04
78
00
00
ENDCHAR
STARTCHAR CHAR115
ENCODING 116
SWIDTH 722 0
DWIDTH 8 0
BBX 8 12 0 -2
BITMAP
00
20
20
7c
20
20
20
20
20
1c
00
00
ENDCHAR
STARTCHAR CHAR116
ENCODING 117
SWIDTH 722 0
DWIDTH 8 0
BBX 8 12 0 -2
BITMAP
00
00
00
44
44
44
44
44
4c
34
00
00
ENDCHAR
STARTCHAR CHAR117
ENCODING 118
SWIDTH 722 0
DWIDTH 8 0
BBX 8 12 0 -2
BITMAP
00
00
00
44
44
44
28
28
10
10
00
00
ENDCHAR
STARTCHAR CHAR118
ENCODING 119
SWIDTH 722 0
DWIDTH 8 0
BBX 8 12 0 -2
BITMAP
00
00
00
82
92
92
aa
44
44
44
00
00
ENDCHAR
STARTCHAR CHAR119
ENCODING 120
SWIDTH 722 0
DWIDTH 8 0
BBX 8 12 0 -2
BITMAP
00
00
00
44
44
28
10
28
44
44
00
00
ENDCHAR
STARTCHAR CHAR120
ENCODING 121
SWIDTH 722 0
DWIDTH 8 0
BBX 8 12 0 -2
BITMAP
00
00
00
44
44
44
28
28
10
10
20
60
ENDCHAR
STARTCHAR CHAR121
ENCODING 122
SWIDTH 722 0
DWIDTH 8 0
BBX 8 12 0 -2
BITMAP
00
00
00
7c
04
08
10
20
40
7c
00
00
ENDCHAR
STARTCHAR CHAR122
ENCODING 123
SWIDTH 722 0
DWIDTH 8 0
BBX 8 12 0 -2
BITMAP
0c
10
10
10
08
30
08
10
10
10
0c
00
ENDCHAR
STARTCHAR CHAR123
ENCODING 124
SWIDTH 722 0
DWIDTH 8 0
BBX 8 12 0 -2
BITMAP
10
10
10
10
10
10
10
10
10
10
10
00
ENDCHAR
STARTCHAR CHAR124
ENCODING 125
SWIDTH 722 0
DWIDTH 8 0
BBX 8 12 0 -2
BITMAP
60
10
10
10
20
18
20
10
10
10
60
00
ENDCHAR
STARTCHAR CHAR125
ENCODING 126
SWIDTH 722 0
DWIDTH 8 0
BBX 8 12 0 -2
BITMAP
00
00
00
00
72
9c
00
00
00
00
00
00
ENDCHAR
STARTCHAR CHAR126
ENCODING 127
SWIDTH 722 0
DWIDTH 8 0
BBX 8 12 0 -2
BITMAP
00
00
00
00
9c
72
00
00
00
00
00
00
ENDCHAR
STARTCHAR CHAR127
ENCODING 128
SWIDTH 722 0
DWIDTH 8 0
BBX 8 12 0 -2
BITMAP
00
00
00
00
00
00
00
00
00
00
00
00
ENDCHAR
STARTCHAR CHAR128
ENCODING 129
SWIDTH 722 0
DWIDTH 8 0
BBX 8 12 0 -2
BITMAP
00
00
78
a4
a4
a4
bc
a4
a4
a4
00
00
ENDCHAR
STARTCHAR CHAR129
ENCODING 130
SWIDTH 722 0
DWIDTH 8 0
BBX 8 12 0 -2
BITMAP
00
00
f8
a4
a4
b8
a4
a4
a4
f8
00
00
ENDCHAR
STARTCHAR CHAR130
ENCODING 131
SWIDTH 722 0
DWIDTH 8 0
BBX 8 12 0 -2
BITMAP
00
1c
60
a0
a0
a0
a0
a0
60
1c
00
00
ENDCHAR
STARTCHAR CHAR131
ENCODING 132
SWIDTH 722 0
DWIDTH 8 0
BBX 8 12 0 -2
BITMAP
00
00
f8
a4
a4
a4
a4
a4
a4
f8
00
00
ENDCHAR
STARTCHAR CHAR132
ENCODING 133
SWIDTH 722 0
DWIDTH 8 0
BBX 8 12 0 -2
BITMAP
00
00
fe
a0
a0
bc
a0
a0
a0
fe
00
00
ENDCHAR
STARTCHAR CHAR133
ENCODING 134
SWIDTH 722 0
DWIDTH 8 0
BBX 8 12 0 -2
BITMAP
00
00
fc
a0
a0
b8
a0
a0
a0
a0
00
00
ENDCHAR
STARTCHAR CHAR134
ENCODING 135
SWIDTH 722 0
DWIDTH 8 0
BBX 8 12 0 -2
BITMAP
00
00
3e
60
a0
a0
a6
a2
62
3c
00
00
ENDCHAR
STARTCHAR CHAR135
ENCODING 136
SWIDTH 722 0
DWIDTH 8 0
BBX 8 12 0 -2
BITMAP
00
00
a2
a2
a2
be
a2
a2
a2
a2
00
00
ENDCHAR
STARTCHAR CHAR136
ENCODING 137
SWIDTH 722 0
DWIDTH 8 0
BBX 8 12 0 -2
BITMAP
00
00
fe
28
28
28
28
28
28
fe
00
00
ENDCHAR
STARTCHAR CHAR137
ENCODING 138
SWIDTH 722 0
DWIDTH 8 0
BBX 8 12 0 -2
BITMAP
00
00
3e
0a
0a
0a
0a
0a
0a
7c
00
00
ENDCHAR
STARTCHAR CHAR138
ENCODING 139
SWIDTH 722 0
DWIDTH 8 0
BBX 8 12 0 -2
BITMAP
00
00
a2
a4
a8
b0
b0
a8
a4
a2
00
00
ENDCHAR
STARTCHAR CHAR139
ENCODING 140
SWIDTH 722 0
DWIDTH 8 0
BBX 8 12 0 -2
BITMAP
00
00
c6
aa
d6
ee
aa
ba
92
82
00
00
ENDCHAR
STARTCHAR CHAR140
ENCODING 141
SWIDTH 722 0
DWIDTH 8 0
BBX 8 12 0 -2
BITMAP
00
00
c2
a2
d2
aa
96
8a
86
82
00
00
ENDCHAR
STARTCHAR CHAR141
ENCODING 142
SWIDTH 722 0
DWIDTH 8 0
BBX 8 12 0 -2
BITMAP
00
00
18
24
66
a5
a5
66
24
18
00
00
ENDCHAR
STARTCHAR CHAR142
ENCODING 143
SWIDTH 722 0
DWIDTH 8 0
BBX 8 12 0 -2
BITMAP
00
00
f8
a4
a4
a4
a4
b8
a0
a0
00
00
ENDCHAR
STARTCHAR CHAR143
ENCODING 144
SWIDTH 722 0
DWIDTH 8 0
BBX 8 12 0 -2
BITMAP
00
00
18
24
66
a5
a5
66
24
1c
0e
03
ENDCHAR
STARTCHAR CHAR144
ENCODING 145
SWIDTH 722 0
DWIDTH 8 0
BBX 8 12 0 -2
BITMAP
00
00
f8
a4
a4
a4
b8
a8
a4
a2
00
00
ENDCHAR
STARTCHAR CHAR145
ENCODING 146
SWIDTH 722 0
DWIDTH 8 0
BBX 8 12 0 -2
BITMAP
00
00
7c
80
c0
a0
50
28
14
f8
00
00
ENDCHAR
STARTCHAR CHAR146
ENCODING 147
SWIDTH 722 0
DWIDTH 8 0
BBX 8 12 0 -2
BITMAP
00
00
fe
28
28
28
28
28
28
28
00
00
ENDCHAR
STARTCHAR CHAR147
ENCODING 148
SWIDTH 722 0
DWIDTH 8 0
BBX 8 12 0 -2
BITMAP
00
00
a2
a2
a2
a2
a2
a2
a2
dc
00
00
ENDCHAR
STARTCHAR CHAR148
ENCODING 149
SWIDTH 722 0
DWIDTH 8 0
BBX 8 12 0 -2
BITMAP
00
00
82
c2
a2
52
54
2c
34
18
00
00
ENDCHAR
STARTCHAR CHAR149
ENCODING 150
SWIDTH 722 0
DWIDTH 8 0
BBX 8 12 0 -2
BITMAP
00
00
e5
a5
a5
a5
a5
a5
a5
da
00
00
ENDCHAR
STARTCHAR CHAR150
ENCODING 151
SWIDTH 722 0
DWIDTH 8 0
BBX 8 12 0 -2
BITMAP
00
00
c2
a2
54
38
28
38
54
8e
00
00
ENDCHAR
STARTCHAR CHAR151
ENCODING 152
SWIDTH 722 0
DWIDTH 8 0
BBX 8 12 0 -2
BITMAP
00
00
82
c6
aa
54
28
10
10
10
00
00
ENDCHAR
STARTCHAR CHAR152
ENCODING 153
SWIDTH 722 0
DWIDTH 8 0
BBX 8 12 0 -2
BITMAP
00
00
fe
0a
14
28
50
a0
a0
fe
00
00
ENDCHAR
STARTCHAR CHAR153
ENCODING 154
SWIDTH 722 0
DWIDTH 8 0
BBX 8 12 0 -2
BITMAP
00
38
20
20
20
00
00
00
00
00
00
00
ENDCHAR
STARTCHAR CHAR154
ENCODING 155
SWIDTH 722 0
DWIDTH 8 0
BBX 8 12 0 -2
BITMAP
00
38
08
08
08
00
00
00
00
00
00
00
ENDCHAR
STARTCHAR CHAR155
ENCODING 156
SWIDTH 722 0
DWIDTH 8 0
BBX 8 12 0 -2
BITMAP
00
00
10
20
7e
80
7e
20
10
00
00
00
ENDCHAR
STARTCHAR CHAR156
ENCODING 157
SWIDTH 722 0
DWIDTH 8 0
BBX 8 12 0 -2
BITMAP
00
00
00
00
fe
00
fe
00
00
00
00
00
ENDCHAR
STARTCHAR CHAR157
ENCODING 158
SWIDTH 722 0
DWIDTH 8 0
BBX 8 12 0 -2
BITMAP
00
00
10
08
fc
02
fc
08
10
00
00
00
ENDCHAR
STARTCHAR CHAR158
ENCODING 159
SWIDTH 722 0
DWIDTH 8 0
BBX 8 12 0 -2
BITMAP
00
80
80
80
80
fc
80
80
80
80
80
00
ENDCHAR
STARTCHAR CHAR159
ENCODING 160
SWIDTH 722 0
DWIDTH 8 0
BBX 8 12 0 -2
BITMAP
00
0c
12
12
12
10
10
10
90
90
90
60
ENDCHAR
STARTCHAR CHAR160
ENCODING 161
SWIDTH 722 0
DWIDTH 8 0
BBX 8 12 0 -2
BITMAP
00
00
00
00
32
5c
8c
88
94
e6
00
00
ENDCHAR
STARTCHAR CHAR161
ENCODING 162
SWIDTH 722 0
DWIDTH 8 0
BBX 8 12 0 -2
BITMAP
00
1c
24
24
48
48
44
44
8c
f0
80
80
ENDCHAR
STARTCHAR CHAR162
ENCODING 163
SWIDTH 722 0
DWIDTH 8 0
BBX 8 12 0 -2
BITMAP
00
00
00
00
44
68
28
30
20
60
a0
c0
ENDCHAR
STARTCHAR CHAR163
ENCODING 164
SWIDTH 722 0
DWIDTH 8 0
BBX 8 12 0 -2
BITMAP
00
78
40
20
70
48
88
88
98
70
00
00
ENDCHAR
STARTCHAR CHAR164
ENCODING 165
SWIDTH 722 0
DWIDTH 8 0
BBX 8 12 0 -2
BITMAP
00
00
00
00
00
70
80
f0
80
70
00
00
ENDCHAR
STARTCHAR CHAR165
ENCODING 166
SWIDTH 722 0
DWIDTH 8 0
BBX 8 12 0 -2
BITMAP
00
03
8e
fc
20
40
80
80
80
7c
04
78
ENDCHAR
STARTCHAR CHAR166
ENCODING 167
SWIDTH 722 0
DWIDTH 8 0
BBX 8 12 0 -2
BITMAP
00
00
00
00
b8
c8
88
88
90
90
10
10
ENDCHAR
STARTCHAR CHAR167
ENCODING 168
SWIDTH 722 0
DWIDTH 8 0
BBX 8 12 0 -2
BITMAP
00
18
24
44
84
fc
88
88
90
60
00
00
ENDCHAR
STARTCHAR CHAR168
ENCODING 169
SWIDTH 722 0
DWIDTH 8 0
BBX 8 12 0 -2
BITMAP
00
00
00
00
40
40
40
80
80
e0
00
00
ENDCHAR
STARTCHAR CHAR169
ENCODING 170
SWIDTH 722 0
DWIDTH 8 0
BBX 8 12 0 -2
BITMAP
00
00
00
00
98
a0
c0
e0
a0
90
00
00
ENDCHAR
STARTCHAR CHAR170
ENCODING 171
SWIDTH 722 0
DWIDTH 8 0
BBX 8 12 0 -2
BITMAP
00
00
60
20
10
30
50
48
88
88
00
00
ENDCHAR
STARTCHAR CHAR171
ENCODING 172
SWIDTH 722 0
DWIDTH 8 0
BBX 8 12 0 -2
BITMAP
00
00
00
00
48
48
88
88
98
e8
80
80
ENDCHAR
STARTCHAR CHAR172
ENCODING 173
SWIDTH 722 0
DWIDTH 8 0
BBX 8 12 0 -2
BITMAP
00
00
00
00
c4
64
28
30
30
20
00
00
ENDCHAR
STARTCHAR CHAR173
ENCODING 174
SWIDTH 722 0
DWIDTH 8 0
BBX 8 12 0 -2
BITMAP
00
8e
30
40
38
40
80
80
80
78
08
70
ENDCHAR
STARTCHAR CHAR174
ENCODING 175
SWIDTH 722 0
DWIDTH 8 0
BBX 8 12 0 -2
BITMAP
00
00
00
00
38
44
84
84
88
70
00
00
ENDCHAR
STARTCHAR CHAR175
ENCODING 176
SWIDTH 722 0
DWIDTH 8 0
BBX 8 12 0 -2
BITMAP
00
00
00
00
fe
24
24
44
44
44
00
00
ENDCHAR
STARTCHAR CHAR176
ENCODING 177
SWIDTH 722 0
DWIDTH 8 0
BBX 8 12 0 -2
BITMAP
00
00
00
00
3c
64
44
44
88
f0
80
80
ENDCHAR
STARTCHAR CHAR177
ENCODING 178
SWIDTH 722 0
DWIDTH 8 0
BBX 8 12 0 -2
BITMAP
00
00
00
00
3e
44
84
84
88
70
00
00
ENDCHAR
STARTCHAR CHAR178
ENCODING 179
SWIDTH 722 0
DWIDTH 8 0
BBX 8 12 0 -2
BITMAP
00
00
00
00
fc
10
20
20
20
20
00
00
ENDCHAR
STARTCHAR CHAR179
ENCODING 180
SWIDTH 722 0
DWIDTH 8 0
BBX 8 12 0 -2
BITMAP
00
00
00
00
48
88
88
88
90
60
00
00
ENDCHAR
STARTCHAR CHAR180
ENCODING 181
SWIDTH 722 0
DWIDTH 8 0
BBX 8 12 0 -2
BITMAP
00
04
08
08
3e
c9
89
91
52
3c
10
10
ENDCHAR
STARTCHAR CHAR181
ENCODING 182
SWIDTH 722 0
DWIDTH 8 0
BBX 8 12 0 -2
BITMAP
00
00
00
00
44
24
28
10
30
50
88
88
ENDCHAR
STARTCHAR CHAR182
ENCODING 183
SWIDTH 722 0
DWIDTH 8 0
BBX 8 12 0 -2
BITMAP
00
00
00
08
92
92
92
92
94
58
20
20
ENDCHAR
STARTCHAR CHAR183
ENCODING 184
SWIDTH 722 0
DWIDTH 8 0
BBX 8 12 0 -2
BITMAP
00
00
00
00
43
49
91
91
9b
6e
00
00
ENDCHAR
STARTCHAR CHAR184
ENCODING 185
SWIDTH 722 0
DWIDTH 8 0
BBX 8 12 0 -2
BITMAP
00
00
00
00
38
40
40
30
c0
f0
00
00
ENDCHAR
STARTCHAR CHAR185
ENCODING 186
SWIDTH 722 0
DWIDTH 8 0
BBX 8 12 0 -2
BITMAP
00
18
24
44
44
7e
04
c8
50
60
00
00
ENDCHAR
STARTCHAR CHAR186
ENCODING 187
SWIDTH 722 0
DWIDTH 8 0
BBX 8 12 0 -2
BITMAP
00
00
00
00
ff
41
99
99
93
6e
00
00
ENDCHAR
STARTCHAR CHAR187
ENCODING 188
SWIDTH 722 0
DWIDTH 8 0
BBX 8 12 0 -2
BITMAP
00
00
00
00
38
68
c8
c8
d0
e0
80
70
ENDCHAR
STARTCHAR CHAR188
ENCODING 189
SWIDTH 722 0
DWIDTH 8 0
BBX 8 12 0 -2
BITMAP
00
00
00
00
1c
60
80
80
80
78
08
70
ENDCHAR
STARTCHAR CHAR189
ENCODING 190
SWIDTH 722 0
DWIDTH 8 0
BBX 8 12 0 -2
BITMAP
00
00
00
00
76
c9
99
91
91
76
1c
10
ENDCHAR
STARTCHAR CHAR190
ENCODING 191
SWIDTH 722 0
DWIDTH 8 0
BBX 8 12 0 -2
BITMAP
00
00
00
00
00
fe
02
02
02
00
00
00
ENDCHAR
STARTCHAR CHAR191
ENCODING 192
SWIDTH 722 0
DWIDTH 8 0
BBX 8 12 0 -2
BITMAP
fc
a2
a2
a2
fc
a4
a2
a2
a2
fc
00
00
ENDCHAR
STARTCHAR CHAR192
ENCODING 193
SWIDTH 722 0
DWIDTH 8 0
BBX 8 12 0 -2
BITMAP
00
00
fe
22
20
20
20
40
40
e0
00
00
ENDCHAR
STARTCHAR CHAR193
ENCODING 194
SWIDTH 722 0
DWIDTH 8 0
BBX 8 12 0 -2
BITMAP
00
00
08
08
14
24
24
42
82
fe
00
00
ENDCHAR
STARTCHAR CHAR194
ENCODING 195
SWIDTH 722 0
DWIDTH 8 0
BBX 8 12 0 -2
BITMAP
00
00
1e
62
41
a5
bd
ab
c6
78
00
00
ENDCHAR
STARTCHAR CHAR195
ENCODING 196
SWIDTH 722 0
DWIDTH 8 0
BBX 8 12 0 -2
BITMAP
00
00
0c
0c
14
24
22
42
82
c7
00
00
ENDCHAR
STARTCHAR CHAR196
ENCODING 197
SWIDTH 722 0
DWIDTH 8 0
BBX 8 12 0 -2
BITMAP
00
00
7e
42
00
44
7c
48
00
ff
00
00
ENDCHAR
STARTCHAR CHAR197
ENCODING 198
SWIDTH 722 0
DWIDTH 8 0
BBX 8 12 0 -2
BITMAP
00
00
ff
21
42
42
42
42
46
ee
00
00
ENDCHAR
STARTCHAR CHAR198
ENCODING 199
SWIDTH 722 0
DWIDTH 8 0
BBX 8 12 0 -2
BITMAP
00
00
3f
21
10
08
08
30
c2
fc
00
00
ENDCHAR
STARTCHAR CHAR199
ENCODING 200
SWIDTH 722 0
DWIDTH 8 0
BBX 8 12 0 -2
BITMAP
00
00
c4
68
30
20
20
20
60
f0
00
00
ENDCHAR
STARTCHAR CHAR200
ENCODING 201
SWIDTH 722 0
DWIDTH 8 0
BBX 8 12 0 -2
BITMAP
00
1c
08
34
d2
92
92
5c
20
70
00
00
ENDCHAR
STARTCHAR CHAR201
ENCODING 202
SWIDTH 722 0
DWIDTH 8 0
BBX 8 12 0 -2
BITMAP
00
00
df
52
54
54
38
10
20
70
00
00
ENDCHAR
STARTCHAR CHAR202
ENCODING 203
SWIDTH 722 0
DWIDTH 8 0
BBX 8 12 0 -2
BITMAP
00
00
1e
31
61
41
42
42
a5
e6
00
00
ENDCHAR
STARTCHAR CHAR203
ENCODING 204
SWIDTH 722 0
DWIDTH 8 0
BBX 8 12 0 -2
BITMAP
00
00
00
00
18
18
00
00
00
00
00
00
ENDCHAR
STARTCHAR CHAR204
ENCODING 205
SWIDTH 722 0
DWIDTH 8 0
BBX 8 12 0 -2
BITMAP
00
10
10
10
10
10
10
54
38
10
00
00
ENDCHAR
STARTCHAR CHAR205
ENCODING 206
SWIDTH 722 0
DWIDTH 8 0
BBX 8 12 0 -2
BITMAP
00
10
38
54
10
10
10
10
10
10
00
00
ENDCHAR
STARTCHAR CHAR206
ENCODING 207
SWIDTH 722 0
DWIDTH 8 0
BBX 8 12 0 -2
BITMAP
00
00
00
00
10
28
44
82
00
00
00
00
ENDCHAR
STARTCHAR CHAR207
ENCODING 208
SWIDTH 722 0
DWIDTH 8 0
BBX 8 12 0 -2
BITMAP
00
00
00
00
82
44
28
10
00
00
00
00
ENDCHAR
STARTCHAR CHAR208
ENCODING 209
SWIDTH 722 0
DWIDTH 8 0
BBX 8 12 0 -2
BITMAP
00
00
00
3e
40
80
7c
80
40
3e
00
00
ENDCHAR
STARTCHAR CHAR209
ENCODING 210
SWIDTH 722 0
DWIDTH 8 0
BBX 8 12 0 -2
BITMAP
00
10
10
10
fe
10
10
10
00
fe
00
00
ENDCHAR
STARTCHAR CHAR210
ENCODING 211
SWIDTH 722 0
DWIDTH 8 0
BBX 8 12 0 -2
BITMAP
00
38
44
02
02
3a
46
42
42
3c
00
00
ENDCHAR
STARTCHAR CHAR211
ENCODING 212
SWIDTH 722 0
DWIDTH 8 0
BBX 8 12 0 -2
BITMAP
00
00
00
fc
02
02
02
fc
00
00
00
00
ENDCHAR
STARTCHAR CHAR212
ENCODING 213
SWIDTH 722 0
DWIDTH 8 0
BBX 8 12 0 -2
BITMAP
00
00
00
7e
80
80
80
7e
00
00
00
00
ENDCHAR
STARTCHAR CHAR213
ENCODING 214
SWIDTH 722 0
DWIDTH 8 0
BBX 8 12 0 -2
BITMAP
00
78
84
84
84
84
84
84
84
84
00
00
ENDCHAR
STARTCHAR CHAR214
ENCODING 215
SWIDTH 722 0
DWIDTH 8 0
BBX 8 12 0 -2
BITMAP
00
84
84
84
84
84
84
84
84
78
00
00
ENDCHAR
STARTCHAR CHAR215
ENCODING 216
SWIDTH 722 0
DWIDTH 8 0
BBX 8 12 0 -2
BITMAP
00
82
82
fe
44
44
28
28
10
10
00
00
ENDCHAR
STARTCHAR CHAR216
ENCODING 217
SWIDTH 722 0
DWIDTH 8 0
BBX 8 12 0 -2
BITMAP
00
fc
04
04
04
3c
04
04
04
fc
00
00
ENDCHAR
STARTCHAR CHAR217
ENCODING 218
SWIDTH 722 0
DWIDTH 8 0
BBX 8 12 0 -2
BITMAP
04
08
10
20
40
80
40
20
10
08
04
fc
ENDCHAR
STARTCHAR CHAR218
ENCODING 219
SWIDTH 722 0
DWIDTH 8 0
BBX 8 12 0 -2
BITMAP
80
40
20
10
08
04
08
10
20
40
80
fc
ENDCHAR
STARTCHAR CHAR219
ENCODING 220
SWIDTH 722 0
DWIDTH 8 0
BBX 8 12 0 -2
BITMAP
00
00
10
20
40
fe
40
20
10
00
00
00
ENDCHAR
STARTCHAR CHAR220
ENCODING 221
SWIDTH 722 0
DWIDTH 8 0
BBX 8 12 0 -2
BITMAP
00
00
00
00
00
ff
00
00
00
00
00
00
ENDCHAR
STARTCHAR CHAR221
ENCODING 222
SWIDTH 722 0
DWIDTH 8 0
BBX 8 12 0 -2
BITMAP
00
00
10
08
04
fe
04
08
10
00
00
00
ENDCHAR
STARTCHAR CHAR222
ENCODING 223
SWIDTH 722 0
DWIDTH 8 0
BBX 8 12 0 -2
BITMAP
00
00
10
20
40
ff
40
20
10
00
00
00
ENDCHAR
STARTCHAR CHAR223
ENCODING 224
SWIDTH 722 0
DWIDTH 8 0
BBX 8 12 0 -2
BITMAP
00
00
00
24
42
ff
42
24
00
00
00
00
ENDCHAR
STARTCHAR CHAR224
ENCODING 225
SWIDTH 722 0
DWIDTH 8 0
BBX 8 12 0 -2
BITMAP
00
02
04
08
fe
10
fe
10
20
40
00
00
ENDCHAR
STARTCHAR CHAR225
ENCODING 226
SWIDTH 722 0
DWIDTH 8 0
BBX 8 12 0 -2
BITMAP
00
00
00
fe
00
fe
00
fe
00
00
00
00
ENDCHAR
STARTCHAR CHAR226
ENCODING 227
SWIDTH 722 0
DWIDTH 8 0
BBX 8 12 0 -2
BITMAP
00
00
81
42
24
18
18
24
42
81
00
00
ENDCHAR
STARTCHAR CHAR227
ENCODING 228
SWIDTH 722 0
DWIDTH 8 0
BBX 8 12 0 -2
BITMAP
00
00
00
30
30
00
fc
00
30
30
00
00
ENDCHAR
STARTCHAR CHAR228
ENCODING 229
SWIDTH 722 0
DWIDTH 8 0
BBX 8 12 0 -2
BITMAP
00
20
20
f8
20
20
00
00
00
00
00
00
ENDCHAR
STARTCHAR CHAR229
ENCODING 230
SWIDTH 722 0
DWIDTH 8 0
BBX 8 12 0 -2
BITMAP
00
00
00
f8
00
00
00
00
00
00
00
00
ENDCHAR
STARTCHAR CHAR230
ENCODING 231
SWIDTH 722 0
DWIDTH 8 0
BBX 8 12 0 -2
BITMAP
00
70
88
88
88
70
00
00
00
00
00
00
ENDCHAR
STARTCHAR CHAR231
ENCODING 232
SWIDTH 722 0
DWIDTH 8 0
BBX 8 12 0 -2
BITMAP
00
00
00
7e
80
80
80
7e
00
fe
00
00
ENDCHAR
STARTCHAR CHAR232
ENCODING 233
SWIDTH 722 0
DWIDTH 8 0
BBX 8 12 0 -2
BITMAP
00
00
00
fc
02
02
02
fc
00
fe
00
00
ENDCHAR
STARTCHAR CHAR233
ENCODING 234
SWIDTH 722 0
DWIDTH 8 0
BBX 8 12 0 -2
BITMAP
00
00
00
00
00
00
00
88
c8
a8
98
88
ENDCHAR
STARTCHAR CHAR234
ENCODING 235
SWIDTH 722 0
DWIDTH 8 0
BBX 8 12 0 -2
BITMAP
00
00
00
00
00
00
00
f8
10
20
40
f8
ENDCHAR
STARTCHAR CHAR235
ENCODING 236
SWIDTH 722 0
DWIDTH 8 0
BBX 8 12 0 -2
BITMAP
00
00
00
00
00
00
00
e0
90
e0
90
e0
ENDCHAR
STARTCHAR CHAR236
ENCODING 237
SWIDTH 722 0
DWIDTH 8 0
BBX 8 12 0 -2
BITMAP
00
00
00
00
00
00
00
20
50
50
f8
88
ENDCHAR
STARTCHAR CHAR237
ENCODING 238
SWIDTH 722 0
DWIDTH 8 0
BBX 8 12 0 -2
BITMAP
00
00
00
00
00
00
00
60
90
80
90
60
ENDCHAR
STARTCHAR CHAR238
ENCODING 239
SWIDTH 722 0
DWIDTH 8 0
BBX 8 12 0 -2
BITMAP
00
00
00
00
00
00
00
e0
90
e0
90
90
ENDCHAR
STARTCHAR CHAR239
ENCODING 240
SWIDTH 722 0
DWIDTH 8 0
BBX 8 12 0 -2
BITMAP
00
00
00
00
00
00
60
90
90
90
90
60
ENDCHAR
STARTCHAR CHAR240
ENCODING 241
SWIDTH 722 0
DWIDTH 8 0
BBX 8 12 0 -2
BITMAP
00
00
00
00
00
00
40
c0
40
40
40
e0
ENDCHAR
STARTCHAR CHAR241
ENCODING 242
SWIDTH 722 0
DWIDTH 8 0
BBX 8 12 0 -2
BITMAP
00
00
00
00
00
00
60
90
10
20
40
f0
ENDCHAR
STARTCHAR CHAR242
ENCODING 243
SWIDTH 722 0
DWIDTH 8 0
BBX 8 12 0 -2
BITMAP
00
00
00
00
00
00
00
e0
10
60
10
e0
ENDCHAR
STARTCHAR CHAR243
ENCODING 244
SWIDTH 722 0
DWIDTH 8 0
BBX 8 12 0 -2
BITMAP
00
00
00
00
00
00
00
20
60
a0
70
20
ENDCHAR
STARTCHAR CHAR244
ENCODING 245
SWIDTH 722 0
DWIDTH 8 0
BBX 8 12 0 -2
BITMAP
00
00
00
00
00
00
00
60
80
c0
20
c0
ENDCHAR
STARTCHAR CHAR245
ENCODING 246
SWIDTH 722 0
DWIDTH 8 0
BBX 8 12 0 -2
BITMAP
00
00
00
00
00
00
00
60
80
c0
a0
40
ENDCHAR
STARTCHAR CHAR246
ENCODING 247
SWIDTH 722 0
DWIDTH 8 0
BBX 8 12 0 -2
BITMAP
00
00
00
00
00
00
00
e0
20
40
40
40
ENDCHAR
STARTCHAR CHAR247
ENCODING 248
SWIDTH 722 0
DWIDTH 8 0
BBX 8 12 0 -2
BITMAP
00
00
00
00
00
00
00
60
90
60
90
60
ENDCHAR
STARTCHAR CHAR248
ENCODING 249
SWIDTH 722 0
DWIDTH 8 0
BBX 8 12 0 -2
BITMAP
00
00
00
00
00
00
60
90
90
60
10
e0
ENDCHAR
STARTCHAR CHAR249
ENCODING 250
SWIDTH 722 0
DWIDTH 8 0
BBX 8 12 0 -2
BITMAP
00
00
00
00
00
18
18
00
00
00
00
00
ENDCHAR
STARTCHAR CHAR250
ENCODING 251
SWIDTH 722 0
DWIDTH 8 0
BBX 8 12 0 -2
BITMAP
00
e7
81
81
00
00
00
00
00
81
81
e7
ENDCHAR
STARTCHAR CHAR251
ENCODING 252
SWIDTH 722 0
DWIDTH 8 0
BBX 8 12 0 -2
BITMAP
00
c6
28
10
10
10
10
10
10
10
28
c6
ENDCHAR
STARTCHAR CHAR252
ENCODING 253
SWIDTH 722 0
DWIDTH 8 0
BBX 8 12 0 -2
BITMAP
00
fe
fe
fe
fe
fe
fe
fe
fe
fe
fe
fe
ENDCHAR
STARTCHAR CHAR253
ENCODING 254
SWIDTH 722 0
DWIDTH 8 0
BBX 8 12 0 -2
BITMAP
00
80
80
80
80
80
80
80
80
80
80
80
ENDCHAR
STARTCHAR CHAR254
ENCODING 255
SWIDTH 722 0
DWIDTH 8 0
BBX 8 12 0 -2
BITMAP
00
e0
e0
e0
e0
e0
e0
e0
e0
e0
e0
e0
ENDCHAR
STARTCHAR CHAR255
ENCODING 256
SWIDTH 722 0
DWIDTH 8 0
BBX 8 12 0 -2
BITMAP
00
00
00
00
00
00
00
00
00
00
00
00
ENDCHAR
ENDFONT
